<svg width="13" height="8" viewBox="0 0 13 8" fill="none" xmlns="http://www.w3.org/2000/svg">
<path fill-rule="evenodd" clip-rule="evenodd" d="M12.433 0.84915C12.3895 0.806398 12.3379 0.77248 12.2811 0.749338C12.2243 0.726195 12.1634 0.714282 12.1019 0.714282C12.0405 0.714282 11.9796 0.726195 11.9228 0.749338C11.866 0.772481 11.8144 0.806398 11.7709 0.84915L6.49162 6.03385L1.2123 0.84915C1.12451 0.76295 1.00544 0.714523 0.881289 0.714523C0.757136 0.714523 0.638069 0.76295 0.550279 0.84915C0.46249 0.93535 0.413171 1.05226 0.413171 1.17417C0.413171 1.29608 0.46249 1.41299 0.550279 1.49919L6.16061 7.00799C6.20404 7.05074 6.25563 7.08466 6.31243 7.1078C6.36923 7.13094 6.43012 7.14285 6.49162 7.14285C6.55312 7.14285 6.61401 7.13094 6.67081 7.1078C6.72761 7.08466 6.7792 7.05074 6.82263 7.00799L12.433 1.49919C12.4765 1.45654 12.511 1.40589 12.5346 1.35011C12.5582 1.29434 12.5703 1.23455 12.5703 1.17417C12.5703 1.11379 12.5582 1.054 12.5346 0.998224C12.511 0.942452 12.4765 0.891793 12.433 0.84915Z" fill="#757575" stroke="#757575" stroke-width="0.5"/>
</svg>
