<svg width="29" height="29" viewBox="0 0 29 29" fill="none" xmlns="http://www.w3.org/2000/svg">
<path opacity="0.4" d="M23.2496 6.74257H22.7663L18.6821 2.6584C18.3559 2.33215 17.8242 2.33215 17.4859 2.6584C17.1596 2.98465 17.1596 3.51632 17.4859 3.85465L20.3738 6.74257H8.6288L11.5167 3.85465C11.843 3.5284 11.843 2.99673 11.5167 2.6584C11.1905 2.33215 10.6588 2.33215 10.3205 2.6584L6.24839 6.74257H5.76505C4.67755 6.74257 2.41797 6.74257 2.41797 9.8359C2.41797 11.008 2.65964 11.7813 3.16714 12.2889C3.45714 12.5909 3.80755 12.748 4.18214 12.8326C4.53255 12.9172 4.90714 12.9293 5.26964 12.9293H23.733C24.1075 12.9293 24.458 12.9051 24.7963 12.8326C25.8113 12.5909 26.5846 11.8659 26.5846 9.8359C26.5846 6.74257 24.3251 6.74257 23.2496 6.74257Z" fill="#231F20"/>
<path d="M23.7465 12.9293H5.27109C4.92068 12.9293 4.53401 12.9172 4.18359 12.8205L5.70609 22.1126C6.04443 24.191 6.95068 26.5835 10.9744 26.5835H17.7531C21.8252 26.5835 22.5502 24.5414 22.9852 22.2576L24.8098 12.8205C24.4715 12.9051 24.109 12.9293 23.7465 12.9293ZM14.5027 22.3543C11.6753 22.3543 9.36734 20.0464 9.36734 17.2189C9.36734 16.7235 9.77818 16.3126 10.2736 16.3126C10.769 16.3126 11.1798 16.7235 11.1798 17.2189C11.1798 19.0555 12.666 20.5418 14.5027 20.5418C16.3394 20.5418 17.8256 19.0555 17.8256 17.2189C17.8256 16.7235 18.2365 16.3126 18.7319 16.3126C19.2273 16.3126 19.6381 16.7235 19.6381 17.2189C19.6381 20.0464 17.3302 22.3543 14.5027 22.3543Z" fill="#231F20"/>
</svg>
