<svg width="56" height="57" viewBox="0 0 56 57" fill="none" xmlns="http://www.w3.org/2000/svg">
<path d="M9.72974 36.1453L20.2997 46.6406C24.6398 50.95 31.6864 50.95 36.0498 46.6406L46.2931 36.4697C50.6331 32.1603 50.6331 25.1635 46.2931 20.8311L35.6998 10.3589C33.4831 8.15794 30.4264 6.97635 27.2998 7.13853L15.6331 7.69457C10.9664 7.90309 7.25641 11.5869 7.02308 16.1974L6.46308 27.7815C6.32308 30.9092 7.51308 33.9443 9.72974 36.1453Z" stroke="#292D32" stroke-width="3" stroke-linecap="round" stroke-linejoin="round"/>
<path d="M22.1667 28.4998C25.3883 28.4998 28 25.9065 28 22.7076C28 19.5087 25.3883 16.9155 22.1667 16.9155C18.945 16.9155 16.3333 19.5087 16.3333 22.7076C16.3333 25.9065 18.945 28.4998 22.1667 28.4998Z" stroke="#292D32" stroke-width="3" stroke-linecap="round"/>
</svg>
