<svg width="20" height="20" viewBox="0 0 20 20" fill="none" xmlns="http://www.w3.org/2000/svg">
<path d="M15.7115 19.4531C15.0412 19.4531 14.5084 18.9203 14.5084 18.25C14.5084 17.5797 15.0412 17.0469 15.7115 17.0469C16.3818 17.0469 16.9146 17.5797 16.9146 18.25C16.9146 18.9203 16.3646 19.4531 15.7115 19.4531ZM6.08652 19.4531C5.41621 19.4531 4.8834 18.9203 4.8834 18.25C4.8834 17.5797 5.41621 17.0469 6.08652 17.0469C6.75683 17.0469 7.28965 17.5797 7.28965 18.25C7.28965 18.9203 6.73965 19.4531 6.08652 19.4531ZM5.89746 16.0156C4.98652 16.0156 4.1959 15.2937 4.09277 14.3828L2.92402 6.16719L2.25371 2.33437C2.20215 1.92187 1.84121 1.57812 1.4459 1.57812H0.569336C0.277148 1.57812 0.0537109 1.35469 0.0537109 1.0625C0.0537109 0.770312 0.277148 0.546875 0.569336 0.546875H1.4459C2.35684 0.546875 3.16465 1.26875 3.28496 2.17969L3.95527 6.0125L5.12402 14.2453C5.1584 14.6406 5.51934 14.9844 5.89746 14.9844H17.0693C17.3615 14.9844 17.585 15.2078 17.585 15.5C17.585 15.7922 17.3615 16.0156 17.0693 16.0156H5.89746ZM6.75684 13.2656C6.48184 13.2656 6.2584 13.0594 6.24121 12.7844C6.22402 12.6469 6.27559 12.5094 6.36152 12.4062C6.44746 12.3031 6.58496 12.2344 6.70527 12.2344L16.0381 11.5469C16.4506 11.5469 16.8115 11.2203 16.8631 10.825L17.9459 4.6375C17.9803 4.34531 17.8943 4.03594 17.7225 3.84688C17.6021 3.70938 17.4475 3.64062 17.2584 3.64062H5.38184C5.08965 3.64062 4.86621 3.41719 4.86621 3.125C4.86621 2.83281 5.08965 2.60938 5.38184 2.60938H17.2928C17.774 2.60938 18.2037 2.81563 18.5303 3.15938C18.8912 3.57188 19.0631 4.17344 18.9943 4.775L17.9115 10.9625C17.8084 11.8562 17.0006 12.5609 16.1068 12.5609L6.82559 13.2484C6.79121 13.2656 6.77402 13.2656 6.75684 13.2656Z" fill="black"/>
</svg>
