<svg width="28" height="28" viewBox="0 0 28 28" fill="none" xmlns="http://www.w3.org/2000/svg">
<path d="M13.9948 2.33334C11.6873 2.33334 9.43172 3.01758 7.51314 4.29953C5.59457 5.58148 4.09922 7.40356 3.2162 9.53537C2.33318 11.6672 2.10214 14.013 2.5523 16.2761C3.00246 18.5392 4.11361 20.618 5.74522 22.2496C7.37683 23.8812 9.45563 24.9923 11.7187 25.4425C13.9819 25.8927 16.3276 25.6616 18.4594 24.7786C20.5912 23.8956 22.4133 22.4002 23.6953 20.4817C24.9772 18.5631 25.6615 16.3075 25.6615 14C25.6615 12.4679 25.3597 10.9508 24.7734 9.53537C24.1871 8.1199 23.3277 6.83378 22.2444 5.75043C21.161 4.66708 19.8749 3.80772 18.4594 3.22142C17.044 2.63511 15.5269 2.33334 13.9948 2.33334ZM19.0115 11.2117L13.6798 18.2117C13.5711 18.3529 13.4315 18.4673 13.2718 18.5461C13.112 18.625 12.9363 18.6662 12.7581 18.6667C12.5809 18.6676 12.4058 18.6282 12.2461 18.5514C12.0864 18.4746 11.9463 18.3624 11.8365 18.2233L8.9898 14.595C8.89557 14.474 8.82611 14.3356 8.78538 14.1877C8.74465 14.0398 8.73344 13.8854 8.7524 13.7331C8.77136 13.5809 8.82011 13.4339 8.89587 13.3006C8.97164 13.1672 9.07293 13.0501 9.19396 12.9558C9.4384 12.7655 9.74843 12.6802 10.0558 12.7184C10.208 12.7374 10.355 12.7862 10.4884 12.8619C10.6218 12.9377 10.7389 13.039 10.8331 13.16L12.7348 15.5867L17.1448 9.75334C17.2383 9.63078 17.3549 9.52782 17.4882 9.45034C17.6214 9.37287 17.7686 9.3224 17.9214 9.30182C18.0741 9.28124 18.2295 9.29094 18.3785 9.33038C18.5275 9.36982 18.6672 9.43822 18.7898 9.53168C18.9124 9.62513 19.0153 9.74182 19.0928 9.87507C19.1703 10.0083 19.2207 10.1555 19.2413 10.3083C19.2619 10.461 19.2522 10.6163 19.2128 10.7653C19.1733 10.9143 19.1049 11.0541 19.0115 11.1767V11.2117Z" fill="#231F20"/>
</svg>
