<svg width="63" height="63" viewBox="0 0 63 63" fill="none" xmlns="http://www.w3.org/2000/svg">
<path d="M30.0234 37.5047C30.0234 38.3414 30.7125 38.9812 31.5 38.9812C32.3367 38.9812 32.9766 38.2922 32.9766 37.5047V15.0117C32.9766 14.175 32.2875 13.5352 31.5 13.5352C30.6633 13.5352 30.0234 14.2242 30.0234 15.0117V37.5047Z" fill="#231F20"/>
<path d="M29.6297 28.9898C29.0883 28.35 28.1531 28.3008 27.5133 28.8422C26.8734 29.3836 26.8242 30.3188 27.3656 30.9586L37.8492 42.968C38.3906 43.6078 39.3258 43.657 39.9656 43.1156C40.6055 42.5742 40.6547 41.6391 40.1133 40.9992L29.6297 28.9898Z" fill="#231F20"/>
<path d="M30.9094 60.9329C14.6672 60.9329 1.47656 47.693 1.47656 31.5C1.47656 15.3071 14.6672 2.11646 30.9094 2.11646C47.1023 2.11646 60.3422 15.3071 60.3422 31.5493C60.293 47.693 47.1023 60.9329 30.9094 60.9329ZM30.9094 5.02036C16.2914 5.02036 4.38047 16.8821 4.38047 31.5C4.38047 46.118 16.2914 57.9797 30.8602 57.9797C45.4289 57.9797 57.3398 46.0688 57.3398 31.5C57.3398 16.9313 45.4781 5.02036 30.9094 5.02036Z" fill="#231F20"/>
</svg>
