<svg width="16" height="18" viewBox="0 0 16 18" fill="none" xmlns="http://www.w3.org/2000/svg">
<path d="M12.9217 3.1668H2.92169L4.00502 2.0918C4.16194 1.93488 4.2501 1.72205 4.2501 1.50013C4.2501 1.27822 4.16194 1.06539 4.00502 0.908467C3.8481 0.751548 3.63528 0.663391 3.41336 0.663391C3.19144 0.663391 2.97861 0.751548 2.82169 0.908467L0.321694 3.40847C0.243587 3.48593 0.181592 3.5781 0.139284 3.67965C0.0969772 3.7812 0.0751953 3.89012 0.0751953 4.00013C0.0751953 4.11014 0.0969772 4.21906 0.139284 4.32061C0.181592 4.42216 0.243587 4.51433 0.321694 4.5918L2.82169 7.0918C2.89916 7.1699 2.99133 7.2319 3.09288 7.27421C3.19443 7.31651 3.30335 7.33829 3.41336 7.33829C3.52337 7.33829 3.63229 7.31651 3.73384 7.27421C3.83539 7.2319 3.92755 7.1699 4.00502 7.0918C4.08313 7.01433 4.14513 6.92216 4.18743 6.82061C4.22974 6.71906 4.25152 6.61014 4.25152 6.50013C4.25152 6.39012 4.22974 6.2812 4.18743 6.17965C4.14513 6.0781 4.08313 5.98593 4.00502 5.90846L2.92169 4.83346H12.9217C13.0924 4.83015 13.2621 4.8605 13.4211 4.92279C13.5801 4.98507 13.7253 5.07808 13.8483 5.19648C13.9714 5.31488 14.0699 5.45636 14.1382 5.61284C14.2066 5.76932 14.2434 5.93774 14.2467 6.10846V8.16679C14.2467 8.38781 14.3345 8.59977 14.4908 8.75605C14.647 8.91233 14.859 9.00013 15.08 9.00013C15.301 9.00013 15.513 8.91233 15.6693 8.75605C15.8256 8.59977 15.9133 8.38781 15.9133 8.16679V6.10846C15.9101 5.71887 15.8301 5.33374 15.678 4.97506C15.5259 4.61637 15.3046 4.29117 15.0268 4.01801C14.749 3.74484 14.4201 3.52908 14.0589 3.38303C13.6977 3.23698 13.3113 3.1635 12.9217 3.1668Z" fill="#231F20"/>
<path d="M13.1732 10.9086C13.0163 10.7517 12.8034 10.6635 12.5815 10.6635C12.3596 10.6635 12.1468 10.7517 11.9899 10.9086C11.8329 11.0655 11.7448 11.2783 11.7448 11.5002C11.7448 11.7222 11.8329 11.935 11.9899 12.0919L13.0732 13.1669H3.07321C2.90248 13.1702 2.73277 13.1399 2.57378 13.0776C2.41479 13.0153 2.26962 12.9223 2.14658 12.8039C2.02353 12.6855 1.92502 12.544 1.85667 12.3875C1.78831 12.2311 1.75146 12.0626 1.74821 11.8919V9.83358C1.74821 9.61256 1.66041 9.4006 1.50413 9.24432C1.34785 9.08804 1.13589 9.00024 0.914876 9.00024C0.693862 9.00024 0.481901 9.08804 0.32562 9.24432C0.16934 9.4006 0.081543 9.61256 0.081543 9.83358V11.8919C0.0848122 12.2815 0.164789 12.6666 0.316906 13.0253C0.469023 13.384 0.690301 13.7092 0.968106 13.9824C1.24591 14.2555 1.5748 14.4713 1.93599 14.6173C2.29719 14.7634 2.68362 14.8369 3.07321 14.8336H13.0732L11.9899 15.9086C11.9118 15.986 11.8498 16.0782 11.8075 16.1798C11.7651 16.2813 11.7434 16.3902 11.7434 16.5002C11.7434 16.6102 11.7651 16.7192 11.8075 16.8207C11.8498 16.9223 11.9118 17.0144 11.9899 17.0919C12.0673 17.17 12.1595 17.232 12.2611 17.2743C12.3626 17.3166 12.4715 17.3384 12.5815 17.3384C12.6915 17.3384 12.8005 17.3166 12.902 17.2743C13.0036 17.232 13.0957 17.17 13.1732 17.0919L15.6732 14.5919C15.7513 14.5144 15.8133 14.4223 15.8556 14.3207C15.8979 14.2192 15.9197 14.1102 15.9197 14.0002C15.9197 13.8902 15.8979 13.7813 15.8556 13.6798C15.8133 13.5782 15.7513 13.486 15.6732 13.4086L13.1732 10.9086Z" fill="#231F20"/>
</svg>
