<svg width="20" height="20" viewBox="0 0 20 20" fill="none" xmlns="http://www.w3.org/2000/svg">
<path d="M17.7743 7.22217H13.3299C13.0352 7.22217 12.7526 7.33923 12.5442 7.54761C12.3358 7.75598 12.2188 8.03859 12.2188 8.33328V16.6666C12.2188 16.9613 12.3358 17.2439 12.5442 17.4523C12.7526 17.6607 13.0352 17.7777 13.3299 17.7777H17.7743C18.069 17.7777 18.3516 17.6607 18.56 17.4523C18.7684 17.2439 18.8854 16.9613 18.8854 16.6666V8.33328C18.8854 8.03859 18.7684 7.75598 18.56 7.54761C18.3516 7.33923 18.069 7.22217 17.7743 7.22217ZM17.7743 8.33328V15.5555H13.3299V8.33328H17.7743Z" fill="#231F20"/>
<path d="M15.5538 2.22217H2.22049C1.9258 2.22217 1.64319 2.33923 1.43481 2.5476C1.22644 2.75598 1.10938 3.03859 1.10938 3.33328V12.2222C1.10938 12.5169 1.22644 12.7995 1.43481 13.0078C1.64319 13.2162 1.9258 13.3333 2.22049 13.3333H6.66493V14.4444H5.17604C5.00584 14.425 4.83472 14.472 4.69819 14.5754C4.56165 14.6788 4.47016 14.8309 4.44271 14.9999C4.47016 15.169 4.56165 15.3211 4.69819 15.4245C4.83472 15.5279 5.00584 15.5748 5.17604 15.5555H11.0649V15.3499H11.1094V12.2222H2.22049V3.33328H15.5538V6.11106H16.6649V3.33328C16.6649 3.03859 16.5479 2.75598 16.3395 2.5476C16.1311 2.33923 15.8485 2.22217 15.5538 2.22217Z" fill="#231F20"/>
</svg>
