<svg width="27" height="27" viewBox="0 0 27 27" fill="none" xmlns="http://www.w3.org/2000/svg">
<path d="M17.7989 19.6088C17.5881 19.3992 17.303 19.2816 17.0057 19.2816C16.7085 19.2816 16.4234 19.3992 16.2126 19.6088L14.6264 21.195V13.5C14.6264 13.2016 14.5078 12.9155 14.2969 12.7045C14.0859 12.4935 13.7997 12.375 13.5014 12.375C13.203 12.375 12.9169 12.4935 12.7059 12.7045C12.4949 12.9155 12.3764 13.2016 12.3764 13.5V21.0375L10.7901 19.4513C10.5793 19.2417 10.2942 19.1241 9.99699 19.1241C9.69978 19.1241 9.41465 19.2417 9.20387 19.4513C9.09842 19.5558 9.01473 19.6803 8.95761 19.8174C8.9005 19.9544 8.87109 20.1015 8.87109 20.25C8.87109 20.3985 8.9005 20.5456 8.95761 20.6826C9.01473 20.8197 9.09842 20.9442 9.20387 21.0487L12.7814 24.6262C12.886 24.7317 13.0104 24.8154 13.1475 24.8725C13.2846 24.9296 13.4316 24.959 13.5801 24.959C13.7286 24.959 13.8757 24.9296 14.0128 24.8725C14.1499 24.8154 14.2743 24.7317 14.3789 24.6262L17.7539 21.2512C17.8692 21.1491 17.9623 21.0244 18.0275 20.8848C18.0927 20.7452 18.1285 20.5938 18.1327 20.4398C18.1369 20.2858 18.1095 20.1326 18.052 19.9896C17.9946 19.8467 17.9084 19.717 17.7989 19.6088Z" fill="#231F20"/>
<path d="M24.7497 13.5C24.7497 14.9918 24.1571 16.4226 23.1022 17.4775C22.0473 18.5324 20.6166 19.125 19.1247 19.125H18.8547C18.7809 19.0138 18.694 18.9118 18.596 18.8213C18.2277 18.4516 17.7425 18.2215 17.2233 18.1702C16.7041 18.1189 16.1832 18.2496 15.7497 18.54V13.5C15.7497 12.9033 15.5127 12.331 15.0907 11.909C14.6688 11.4871 14.0965 11.25 13.4997 11.25C12.903 11.25 12.3307 11.4871 11.9087 11.909C11.4868 12.331 11.2497 12.9033 11.2497 13.5V18.3825C10.8163 18.0921 10.2954 17.9614 9.77617 18.0127C9.25696 18.064 8.77172 18.2941 8.40349 18.6638C8.36749 18.696 8.33708 18.7341 8.31349 18.7763C6.92752 18.3684 5.66949 17.6115 4.6599 16.5781C3.65031 15.5447 2.92299 14.2693 2.54761 12.8742C2.17222 11.4791 2.16135 10.011 2.51603 8.6105C2.87071 7.20998 3.57907 5.924 4.57324 4.87574C5.56741 3.82748 6.8141 3.05205 8.19387 2.62374C9.57365 2.19543 11.0403 2.12858 12.4533 2.42959C13.8663 2.73061 15.1784 3.38941 16.2638 4.34288C17.3492 5.29636 18.1716 6.51257 18.6522 7.875C18.8097 7.875 18.9672 7.875 19.1247 7.875C20.6166 7.875 22.0473 8.46764 23.1022 9.52253C24.1571 10.5774 24.7497 12.0082 24.7497 13.5Z" fill="#231F20"/>
</svg>
