<svg width="62" height="62" viewBox="0 0 62 62" fill="none" xmlns="http://www.w3.org/2000/svg">
<path d="M53.1745 25.8947C54.3092 30.6936 53.8563 35.7311 51.884 40.2507C49.9117 44.7703 46.5263 48.5281 42.2363 50.9597C37.9463 53.3914 32.9832 54.3656 28.0923 53.7361C23.2014 53.1066 18.6468 50.9074 15.1123 47.4687" stroke="#FFB629" stroke-width="3" stroke-linecap="round"/>
<path d="M8.71856 36.0084C8.37651 34.4166 8.2044 32.7929 8.20512 31.1647C8.19612 26.6914 9.5046 22.3145 11.9673 18.5802C14.43 14.8458 17.9379 11.9194 22.0532 10.166C26.1685 8.41263 30.7091 7.90996 35.1083 8.72072C39.5075 9.53148 43.5705 11.6198 46.7904 14.725" stroke="#FFB629" stroke-width="3" stroke-linecap="round"/>
<path d="M36.5508 15.7325L47.1005 14.9575L46.277 5.07626" stroke="#FFB629" stroke-width="3" stroke-linecap="round"/>
<path d="M25.1005 46.2675L14.5605 47.0425L15.384 56.9238" stroke="#FFB629" stroke-width="3" stroke-linecap="round"/>
</svg>
