<svg width="14" height="14" viewBox="0 0 14 14" fill="none" xmlns="http://www.w3.org/2000/svg">
<g clip-path="url(#clip0_162_152)">
<path d="M7 0C5.14348 0 3.36301 0.737498 2.05025 2.05025C0.737498 3.36301 0 5.14348 0 7C0 8.85652 0.737498 10.637 2.05025 11.9497C3.36301 13.2625 5.14348 14 7 14C8.85652 14 10.637 13.2625 11.9497 11.9497C13.2625 10.637 14 8.85652 14 7C14 5.14348 13.2625 3.36301 11.9497 2.05025C10.637 0.737498 8.85652 0 7 0ZM4.1615 3.99525C4.82913 2.74925 7.679 3.89025 4.9945 7C1.0605 5.6035 2.93825 3.23925 4.1615 3.99525ZM9.90062 8.76225C9.98368 8.74269 10.0707 8.74785 10.1508 8.7771C10.231 8.80634 10.3008 8.85839 10.3518 8.92683C10.4028 8.99527 10.4326 9.07712 10.4376 9.16231C10.4427 9.24749 10.4227 9.33228 10.3801 9.40625C10.0346 10.0051 9.53745 10.5023 8.9387 10.8479C8.33995 11.1935 7.66072 11.3753 6.96938 11.375C6.27803 11.3753 5.5988 11.1935 5.00005 10.8479C4.4013 10.5023 3.90414 10.0051 3.55862 9.40625C3.51608 9.33228 3.49609 9.24749 3.50112 9.16231C3.50615 9.07712 3.53599 8.99527 3.58695 8.92683C3.63791 8.85839 3.70777 8.80634 3.78793 8.7771C3.8681 8.74785 3.95506 8.74269 4.03812 8.76225H4.0425L4.05738 8.76663L4.116 8.77975L4.3365 8.82787C4.52462 8.86812 4.78713 8.92238 5.08638 8.97575C5.69275 9.08425 6.41813 9.1875 6.96938 9.1875C7.52063 9.1875 8.24687 9.08425 8.85237 8.97575C9.17719 8.91731 9.50072 8.85196 9.82275 8.77975L9.88138 8.76663L9.89625 8.76313L9.90062 8.76137V8.76225ZM9.83937 3.99525C11.0617 3.23925 12.9395 5.6035 9.0055 7C6.32187 3.89025 9.17262 2.74925 9.83937 3.99525Z" fill="#231F20"/>
</g>
<defs>
<clipPath id="clip0_162_152">
<rect width="14" height="14" fill="white"/>
</clipPath>
</defs>
</svg>
