<svg width="23" height="17" viewBox="0 0 23 17" fill="none" xmlns="http://www.w3.org/2000/svg">
<g clip-path="url(#clip0_562_16)">
<path d="M10.23 2.06779C10.6516 2.02246 11.0756 1.99983 11.5 2C16.164 2 19.9 4.69562 21.5 8.49993C21.1126 9.4253 20.5893 10.2965 19.945 11.0888M6.02 3.41049C3.98 4.56655 2.4 6.35774 1.5 8.49993C3.1 12.3043 6.836 14.9999 11.5 14.9999C13.4321 15.0093 15.3292 14.5207 16.98 13.5885M9.38 6.53138C9.1014 6.79008 8.8804 7.0972 8.72963 7.4352C8.57885 7.7732 8.50125 8.13547 8.50125 8.50133C8.50125 8.86718 8.57885 9.22945 8.72963 9.56745C8.8804 9.90546 9.1014 10.2126 9.38 10.4713C9.6586 10.73 9.98934 10.9352 10.3534 11.0752C10.7174 11.2152 11.1075 11.2872 11.5015 11.2872C11.8955 11.2872 12.2856 11.2152 12.6496 11.0752C13.0137 10.9352 13.3444 10.73 13.623 10.4713" stroke="#757575" stroke-width="2.05833" stroke-linecap="round" stroke-linejoin="round"/>
<path d="M4 1L19 15.5" stroke="#757575" stroke-width="1.91667" stroke-linecap="round"/>
</g>
<defs>
<clipPath id="clip0_562_16">
<rect width="23" height="17" fill="white"/>
</clipPath>
</defs>
</svg>
