<svg width="51" height="50" viewBox="0 0 51 50" fill="none" xmlns="http://www.w3.org/2000/svg">
<path d="M36.8052 18.496C38.1982 17.489 39.2361 16.0664 39.77 14.4325C40.3038 12.7986 40.3061 11.0375 39.7765 9.40229C39.2468 7.76703 38.2125 6.34172 36.8222 5.33107C35.4318 4.32043 33.7568 3.77646 32.038 3.7773H18.8685C17.1496 3.77646 15.4747 4.32043 14.0843 5.33107C12.6939 6.34172 11.6596 7.76703 11.13 9.40229C10.6003 11.0375 10.6026 12.7986 11.1364 14.4325C11.6703 16.0664 12.7083 17.489 14.1013 18.496C13.059 19.2488 12.2102 20.2382 11.6249 21.383C11.0396 22.5277 10.7344 23.795 10.7344 25.0808C10.7344 26.3665 11.0396 27.6338 11.625 28.7785C12.2103 29.9233 13.059 30.9127 14.1014 31.6654C12.9739 32.4818 12.0748 33.5739 11.4903 34.8373C10.9057 36.1006 10.6553 37.4929 10.7629 38.8808C10.8705 40.2686 11.3326 41.6056 12.1049 42.7638C12.8772 43.9219 13.9339 44.8624 15.1737 45.4952C16.4136 46.128 17.7952 46.432 19.1861 46.378C20.5771 46.3239 21.9309 45.9138 23.118 45.1867C24.305 44.4596 25.2856 43.44 25.9658 42.2255C26.6459 41.0109 27.0029 39.6421 27.0026 38.2501V31.4617C27.8516 32.1327 28.8261 32.6275 29.8689 32.9169C30.9116 33.2064 32.0017 33.2847 33.0751 33.1473C34.1486 33.0099 35.1838 32.6596 36.12 32.1168C37.0563 31.574 37.8748 30.8498 38.5274 29.9866C39.1801 29.1233 39.6538 28.1384 39.9208 27.0897C40.1878 26.0409 40.2427 24.9494 40.0823 23.8792C39.9219 22.8089 39.5494 21.7815 38.9866 20.8571C38.4239 19.9327 37.6822 19.13 36.8052 18.496ZM37.0734 11.9114C37.0718 13.2457 36.5414 14.525 35.5982 15.4689C34.655 16.4128 33.3761 16.9442 32.0417 16.9467L32.038 16.9466L32.0305 16.9468L27.0026 16.9466V6.87601H32.038C33.373 6.87752 34.6529 7.40851 35.5969 8.35251C36.5408 9.2965 37.0718 10.5764 37.0734 11.9114ZM32.038 30.1161C30.7034 30.1157 29.4235 29.5856 28.4796 28.6422C27.5357 27.6987 27.0049 26.4191 27.0039 25.0845C27.0029 23.7499 27.5318 22.4696 28.4743 21.5247C29.4168 20.5798 30.6959 20.0478 32.0305 20.0455H32.038L32.0416 20.0454C33.3762 20.0472 34.6555 20.5788 35.5983 21.5233C36.5412 22.4678 37.0705 23.748 37.0701 25.0826C37.0696 26.4172 36.5393 27.6969 35.5957 28.6408C34.6522 29.5846 33.3725 30.1152 32.038 30.1161Z" fill="#A0E2CF"/>
</svg>
