<svg width="81" height="49" viewBox="0 0 81 49" fill="none" xmlns="http://www.w3.org/2000/svg">
<path d="M41.796 16.4C41.445 16.4108 41.1075 16.5566 40.8591 16.8104L33.7365 23.9114L29.349 19.5374C28.1205 18.2576 26.136 20.234 27.4185 21.4598L32.7726 26.8004C33.3045 27.3323 34.1685 27.3323 34.7031 26.8004L42.7896 18.7355C43.6806 17.8715 43.0245 16.4 41.7987 16.4H41.796ZM1.35 27.2H9.45C10.1979 27.2 10.8 27.8021 10.8 28.55C10.8 29.2979 10.1979 29.9 9.45 29.9H1.35C0.6021 29.9 0 29.2979 0 28.55C0 27.8021 0.6021 27.2 1.35 27.2ZM1.35 16.4H9.45C10.1979 16.4 10.8 17.0021 10.8 17.75C10.8 18.4979 10.1979 19.1 9.45 19.1H1.35C0.6021 19.1 0 18.4979 0 17.75C0 17.0021 0.6021 16.4 1.35 16.4ZM1.35 5.60001H9.45C10.1979 5.60001 10.8 6.20211 10.8 6.95001C10.8 7.69791 10.1979 8.30001 9.45 8.30001H1.35C0.6021 8.30001 0 7.69791 0 6.95001C0 6.20211 0.6021 5.60001 1.35 5.60001ZM66.15 35.3C62.4375 35.3 59.4 38.3375 59.4 42.05C59.4 45.7625 62.4375 48.8 66.15 48.8C69.8625 48.8 72.9 45.7625 72.9 42.05C72.9 38.3375 69.8625 35.3 66.15 35.3ZM66.15 38C68.4018 38 70.2 39.7982 70.2 42.05C70.2 44.3018 68.4018 46.1 66.15 46.1C63.8982 46.1 62.1 44.3018 62.1 42.05C62.1 39.7982 63.8982 38 66.15 38ZM31.05 35.3C27.3375 35.3 24.3 38.3375 24.3 42.05C24.3 45.7625 27.3375 48.8 31.05 48.8C34.7625 48.8 37.8 45.7625 37.8 42.05C37.8 38.3375 34.7625 35.3 31.05 35.3ZM31.05 38C33.3018 38 35.1 39.7982 35.1 42.05C35.1 44.3018 33.3018 46.1 31.05 46.1C28.7982 46.1 27 44.3018 27 42.05C27 39.7982 28.7982 38 31.05 38ZM17.55 0.200012C15.3306 0.200012 13.5 2.03061 13.5 4.25001V33.95C13.5 36.1694 15.3306 38 17.55 38H22.95C24.7752 38.027 24.7752 35.273 22.95 35.3H17.55C16.7778 35.3 16.2 34.7222 16.2 33.95V4.25001C16.2 3.47781 16.7778 2.90001 17.55 2.90001H52.65C53.4222 2.90001 54 3.47781 54 4.25001V35.3H39.15C37.368 35.3 37.4004 38.027 39.15 38H58.05C59.832 38 59.8158 35.3 58.05 35.3H56.7V11H68.1129L78.3 26.9192V33.95C78.3 34.7222 77.7222 35.3 76.95 35.3H74.25C72.4842 35.3 72.4842 38 74.25 38H76.95C79.1694 38 81 36.1694 81 33.95V26.525C81 26.2685 80.9271 26.012 80.7894 25.796L69.9894 8.92101C69.741 8.53491 69.3144 8.30001 68.85 8.30001H56.7V4.25001C56.7 2.03061 54.8694 0.200012 52.65 0.200012H17.55Z" fill="#FFB629"/>
</svg>
