<svg width="52" height="53" viewBox="0 0 52 53" fill="none" xmlns="http://www.w3.org/2000/svg">
<g clip-path="url(#clip0_54_40)">
<path d="M1.77818 52.2904C1.44438 52.2908 1.11954 52.1824 0.852967 51.9815C0.586392 51.7806 0.392615 51.4982 0.301008 51.1772C0.2094 50.8562 0.225005 50.5142 0.345393 50.2029C0.465781 49.8916 0.684375 49.628 0.968098 49.4522C1.18442 49.3172 22.6785 35.8607 28.0513 22.0929C28.2029 21.7191 28.4956 21.42 28.8661 21.2604C29.2365 21.1009 29.6549 21.0936 30.0307 21.2402C30.4065 21.3868 30.7094 21.6756 30.8738 22.0439C31.0383 22.4122 31.0511 22.8305 30.9095 23.2082C25.1639 37.9365 3.50415 51.4896 2.58516 52.0511C2.34398 52.205 2.06431 52.288 1.77818 52.2904Z" fill="#231F20"/>
<path d="M6.79959 47.9256L6.77352 46.2534C6.71371 38.1543 8.93502 30.202 13.1833 23.3064L13.6436 22.6298H19.4828L18.0667 18.0534L18.5162 17.4397C27.1246 5.57419 41.9771 1.93198 47.9636 0.916348C48.4827 0.83097 49.0144 0.864781 49.5185 1.01523C50.0226 1.16568 50.4859 1.42884 50.8733 1.78476C51.2607 2.14069 51.5621 2.5801 51.7547 3.06969C51.9472 3.55928 52.0259 4.08624 51.9847 4.61072C49.2369 43.1113 8.86614 47.7216 8.45805 47.7599L6.79959 47.9256ZM15.3098 25.6982C12.0211 31.4279 10.1515 37.8615 9.85721 44.4614C17.3886 43.2171 46.6518 36.3302 48.9316 4.38673C48.9382 4.32073 48.9291 4.25409 48.9051 4.19224C48.8812 4.1304 48.8429 4.0751 48.7935 4.03081C48.7537 3.9917 48.705 3.96285 48.6515 3.94681C48.5981 3.93077 48.5415 3.92803 48.4867 3.93876C42.979 4.87155 29.4734 8.16088 21.4634 18.6287L22.6539 22.5087C22.7672 22.8774 22.7924 23.2675 22.7275 23.6477C22.6626 24.0279 22.5094 24.3875 22.2802 24.6978C22.051 25.008 21.7522 25.2601 21.4078 25.4339C21.0635 25.6076 20.6831 25.6982 20.2974 25.6982H15.3098Z" fill="#231F20"/>
</g>
<defs>
<clipPath id="clip0_54_40">
<rect width="51.7576" height="51.7576" fill="white" transform="translate(0.242432 0.697021)"/>
</clipPath>
</defs>
</svg>
