<svg width="94" height="70" viewBox="0 0 94 70" fill="none" xmlns="http://www.w3.org/2000/svg">
<path fill-rule="evenodd" clip-rule="evenodd" d="M4.08333 0.0833359C1.82817 0.0833359 0 1.91153 0 4.16667C0 6.42181 1.82817 8.25 4.08333 8.25H13.0931L24.4396 56.878C26.1286 64.1165 32.4823 69.2811 39.8726 69.4931V69.5H71.8152C79.7728 69.5 86.5724 63.7654 87.9146 55.9217L93.0416 25.9608C93.895 20.9725 90.0526 16.4167 84.9917 16.4167H23.3847L20.3098 3.23881C19.8786 1.39074 18.2311 0.0833359 16.3333 0.0833359H4.08333ZM25.2902 24.5833L32.3927 55.0225C33.2551 58.7184 36.5503 61.3333 40.3457 61.3333H71.8152C75.794 61.3333 79.1938 58.466 79.8651 54.544L84.9917 24.5833H25.2902Z" fill="white"/>
</svg>
