<svg width="147" height="40" viewBox="0 0 147 40" fill="none" xmlns="http://www.w3.org/2000/svg">
<path d="M19.4655 39.1392C16.6897 39.1392 14.1047 38.6881 11.7105 37.786C9.35107 36.8491 7.28655 35.548 5.51696 33.8825C3.78207 32.1823 2.42885 30.1871 1.45731 27.8971C0.48577 25.607 0 23.1088 0 20.4023C0 17.6959 0.48577 15.1977 1.45731 12.9076C2.42885 10.6175 3.79942 8.63977 5.56901 6.97427C7.3386 5.27407 9.40312 3.97291 11.7626 3.07076C14.122 2.13392 16.707 1.6655 19.5175 1.6655C22.5016 1.6655 25.2253 2.18597 27.6889 3.2269C30.1524 4.23314 32.2343 5.7425 33.9345 7.75497L29.5626 11.8667C28.2441 10.4441 26.7694 9.38577 25.1386 8.69181C23.5078 7.96316 21.7382 7.59883 19.8298 7.59883C17.9214 7.59883 16.1692 7.91111 14.5731 8.53568C13.0117 9.16024 11.6411 10.045 10.4614 11.1901C9.31638 12.3351 8.41423 13.6883 7.75497 15.2497C7.13041 16.8111 6.81813 18.5287 6.81813 20.4023C6.81813 22.276 7.13041 23.9936 7.75497 25.555C8.41423 27.1164 9.31638 28.4696 10.4614 29.6146C11.6411 30.7597 13.0117 31.6445 14.5731 32.269C16.1692 32.8936 17.9214 33.2059 19.8298 33.2059C21.7382 33.2059 23.5078 32.8589 25.1386 32.1649C26.7694 31.4363 28.2441 30.3433 29.5626 28.886L33.9345 33.0497C32.2343 35.0275 30.1524 36.5368 27.6889 37.5778C25.2253 38.6187 22.4842 39.1392 19.4655 39.1392Z" fill="white"/>
<path d="M39.793 38.6187V0H46.2989V38.6187H39.793Z" fill="white"/>
<path d="M71.9612 38.6187V32.9977L71.5969 31.8006V21.9637C71.5969 20.0554 71.0244 18.5807 69.8793 17.5398C68.7343 16.4641 66.9994 15.9263 64.6746 15.9263C63.1132 15.9263 61.5692 16.1692 60.0425 16.655C58.5505 17.1407 57.284 17.8174 56.2431 18.6848L53.6928 13.9485C55.1848 12.8035 56.9544 11.9534 59.0015 11.3982C61.0834 10.8084 63.2347 10.5135 65.4553 10.5135C69.4803 10.5135 72.5858 11.485 74.7717 13.4281C76.9924 15.3365 78.1027 18.3031 78.1027 22.3281V38.6187H71.9612ZM63.2173 38.983C61.1355 38.983 59.3138 38.6361 57.7524 37.9421C56.191 37.2135 54.9766 36.2246 54.1091 34.9754C53.2764 33.6916 52.86 32.2517 52.86 30.6556C52.86 29.0942 53.2243 27.6889 53.953 26.4398C54.7164 25.1906 55.9481 24.2018 57.6483 23.4731C59.3485 22.7444 61.6039 22.3801 64.4144 22.3801H72.4817V26.7H64.8828C62.6622 26.7 61.1702 27.0643 60.4068 27.793C59.6435 28.4869 59.2618 29.3544 59.2618 30.3953C59.2618 31.5751 59.7302 32.5119 60.667 33.2059C61.6039 33.8998 62.905 34.2468 64.5705 34.2468C66.1666 34.2468 67.5893 33.8825 68.8384 33.1538C70.1222 32.4252 71.0417 31.3495 71.5969 29.9269L72.6898 33.8304C72.0653 35.4612 70.9376 36.7277 69.3068 37.6298C67.7107 38.532 65.6809 38.983 63.2173 38.983Z" fill="white"/>
<path d="M86.4522 38.6187V10.8257H92.6457V18.4766L91.9171 16.2386C92.7498 14.3649 94.051 12.9423 95.8206 11.9708C97.6249 10.9992 99.8629 10.5135 102.535 10.5135V16.707C102.257 16.6376 101.997 16.6029 101.754 16.6029C101.511 16.5682 101.268 16.5509 101.025 16.5509C98.5617 16.5509 96.6013 17.2795 95.144 18.7368C93.6867 20.1595 92.958 22.2934 92.958 25.1386V38.6187H86.4522Z" fill="white"/>
<path d="M120.863 38.983C117.775 38.983 115.069 38.3758 112.744 37.1614C110.454 35.9123 108.667 34.2121 107.383 32.0608C106.134 29.9096 105.509 27.4634 105.509 24.7222C105.509 21.9464 106.117 19.5002 107.331 17.3836C108.58 15.2324 110.28 13.5495 112.432 12.3351C114.618 11.1207 117.098 10.5135 119.874 10.5135C122.581 10.5135 124.992 11.1033 127.109 12.283C129.225 13.4628 130.891 15.1283 132.105 17.2795C133.32 19.4308 133.927 21.9637 133.927 24.8784C133.927 25.1559 133.91 25.4682 133.875 25.8152C133.875 26.1622 133.858 26.4918 133.823 26.8041H110.662V22.4842H130.388L127.837 23.8374C127.872 22.2413 127.543 20.8361 126.849 19.6216C126.155 18.4072 125.2 17.453 123.986 16.7591C122.806 16.0651 121.436 15.7181 119.874 15.7181C118.278 15.7181 116.873 16.0651 115.659 16.7591C114.479 17.453 113.542 18.4246 112.848 19.6737C112.189 20.8881 111.859 22.3281 111.859 23.9936V25.0345C111.859 26.7 112.241 28.1747 113.004 29.4585C113.768 30.7423 114.843 31.7312 116.231 32.4252C117.619 33.1191 119.215 33.4661 121.019 33.4661C122.581 33.4661 123.986 33.2232 125.235 32.7374C126.484 32.2517 127.595 31.4883 128.566 30.4474L132.053 34.455C130.804 35.9123 129.225 37.04 127.317 37.838C125.443 38.6014 123.292 38.983 120.863 38.983Z" fill="white"/>
<path d="M141.021 15.0242C140.187 15.0242 139.426 14.8865 138.738 14.6113C138.049 14.3441 137.454 13.9636 136.952 13.4697C136.459 12.9839 136.074 12.4051 135.799 11.7331C135.532 11.053 135.398 10.3122 135.398 9.51069C135.398 8.70107 135.532 7.96432 135.799 7.30043C136.074 6.62845 136.463 6.04957 136.965 5.5638C137.475 5.06994 138.078 4.68942 138.774 4.42224C139.47 4.15507 140.235 4.02148 141.069 4.02148C141.895 4.02148 142.648 4.15102 143.328 4.4101C144.016 4.66918 144.611 5.03755 145.113 5.51523C145.615 5.9848 146 6.54749 146.267 7.20328C146.542 7.85907 146.68 8.58367 146.68 9.3771C146.68 10.0572 146.599 10.6441 146.437 11.138C146.283 11.6238 146.057 12.0003 145.757 12.2674C145.457 12.5265 145.097 12.656 144.676 12.656C144.263 12.656 143.931 12.5306 143.68 12.2796C143.429 12.0286 143.304 11.6764 143.304 11.223V10.2636L143.401 9.4864L143.28 8.27197V6.43819H144.069V11.0409C144.069 11.3809 144.142 11.6197 144.288 11.7574C144.433 11.895 144.611 11.9638 144.822 11.9638C145.073 11.9638 145.291 11.8626 145.478 11.6602C145.664 11.4578 145.806 11.1664 145.903 10.7858C146.008 10.3972 146.061 9.93169 146.061 9.38924C146.061 8.67678 145.939 8.02909 145.696 7.44616C145.453 6.86324 145.109 6.36128 144.664 5.94028C144.219 5.51928 143.692 5.19948 143.085 4.98088C142.478 4.75419 141.806 4.64084 141.069 4.64084C140.333 4.64084 139.657 4.75824 139.041 4.99302C138.426 5.22781 137.896 5.5638 137.45 6.001C137.013 6.43009 136.673 6.9442 136.43 7.54332C136.187 8.13434 136.066 8.79013 136.066 9.51069C136.066 10.2312 136.183 10.8911 136.418 11.4902C136.661 12.0893 137.001 12.6034 137.438 13.0325C137.875 13.4697 138.398 13.8057 139.005 14.0405C139.612 14.2834 140.284 14.4048 141.021 14.4048C141.385 14.4048 141.774 14.3603 142.187 14.2712C142.608 14.1822 142.996 14.0486 143.352 13.8705L143.559 14.4655C143.195 14.6518 142.782 14.7894 142.32 14.8784C141.859 14.9756 141.426 15.0242 141.021 15.0242ZM140.875 12.656C140.3 12.656 139.786 12.5225 139.333 12.2553C138.879 11.98 138.519 11.6076 138.252 11.138C137.993 10.6603 137.863 10.1179 137.863 9.51069C137.863 8.90347 137.993 8.36508 138.252 7.8955C138.519 7.42592 138.879 7.05755 139.333 6.79037C139.786 6.5232 140.3 6.38961 140.875 6.38961C141.434 6.38961 141.928 6.5151 142.357 6.76609C142.794 7.01707 143.134 7.37735 143.377 7.84692C143.628 8.3084 143.753 8.86299 143.753 9.51069C143.753 10.1584 143.628 10.717 143.377 11.1866C143.134 11.6562 142.798 12.0205 142.369 12.2796C141.94 12.5306 141.442 12.656 140.875 12.656ZM140.984 11.9517C141.421 11.9517 141.814 11.8505 142.162 11.6481C142.519 11.4457 142.794 11.1623 142.988 10.798C143.191 10.4256 143.292 9.99646 143.292 9.51069C143.292 9.01682 143.191 8.59177 142.988 8.23554C142.794 7.87121 142.519 7.59189 142.162 7.39759C141.814 7.19518 141.421 7.09398 140.984 7.09398C140.531 7.09398 140.13 7.19518 139.782 7.39759C139.434 7.59189 139.159 7.87121 138.956 8.23554C138.762 8.59987 138.665 9.02492 138.665 9.51069C138.665 9.99646 138.762 10.4215 138.956 10.7858C139.159 11.1502 139.434 11.4376 139.782 11.6481C140.13 11.8505 140.531 11.9517 140.984 11.9517Z" fill="white"/>
</svg>
