<svg width="87" height="37" viewBox="0 0 87 37" fill="none" xmlns="http://www.w3.org/2000/svg">
<path d="M12.54 29.3C10.94 29.3 9.45 29.04 8.07 28.52C6.71 27.98 5.52 27.23 4.5 26.27C3.5 25.29 2.72 24.14 2.16 22.82C1.6 21.5 1.32 20.06 1.32 18.5C1.32 16.94 1.6 15.5 2.16 14.18C2.72 12.86 3.51 11.72 4.53 10.76C5.55 9.78 6.74 9.03 8.1 8.51C9.46 7.97 10.95 7.7 12.57 7.7C14.29 7.7 15.86 8 17.28 8.6C18.7 9.18 19.9 10.05 20.88 11.21L18.36 13.58C17.6 12.76 16.75 12.15 15.81 11.75C14.87 11.33 13.85 11.12 12.75 11.12C11.65 11.12 10.64 11.3 9.72 11.66C8.82 12.02 8.03 12.53 7.35 13.19C6.69 13.85 6.17 14.63 5.79 15.53C5.43 16.43 5.25 17.42 5.25 18.5C5.25 19.58 5.43 20.57 5.79 21.47C6.17 22.37 6.69 23.15 7.35 23.81C8.03 24.47 8.82 24.98 9.72 25.34C10.64 25.7 11.65 25.88 12.75 25.88C13.85 25.88 14.87 25.68 15.81 25.28C16.75 24.86 17.6 24.23 18.36 23.39L20.88 25.79C19.9 26.93 18.7 27.8 17.28 28.4C15.86 29 14.28 29.3 12.54 29.3ZM24.2569 29V6.74H28.0069V29H24.2569ZM42.7988 29V25.76L42.5888 25.07V19.4C42.5888 18.3 42.2588 17.45 41.5988 16.85C40.9388 16.23 39.9388 15.92 38.5988 15.92C37.6988 15.92 36.8088 16.06 35.9288 16.34C35.0688 16.62 34.3388 17.01 33.7388 17.51L32.2688 14.78C33.1288 14.12 34.1488 13.63 35.3288 13.31C36.5288 12.97 37.7688 12.8 39.0488 12.8C41.3688 12.8 43.1588 13.36 44.4188 14.48C45.6988 15.58 46.3388 17.29 46.3388 19.61V29H42.7988ZM37.7588 29.21C36.5588 29.21 35.5088 29.01 34.6088 28.61C33.7088 28.19 33.0088 27.62 32.5088 26.9C32.0288 26.16 31.7888 25.33 31.7888 24.41C31.7888 23.51 31.9988 22.7 32.4188 21.98C32.8588 21.26 33.5688 20.69 34.5488 20.27C35.5288 19.85 36.8288 19.64 38.4488 19.64H43.0988V22.13H38.7188C37.4388 22.13 36.5788 22.34 36.1388 22.76C35.6988 23.16 35.4788 23.66 35.4788 24.26C35.4788 24.94 35.7488 25.48 36.2888 25.88C36.8288 26.28 37.5788 26.48 38.5388 26.48C39.4588 26.48 40.2788 26.27 40.9988 25.85C41.7388 25.43 42.2688 24.81 42.5888 23.99L43.2188 26.24C42.8588 27.18 42.2088 27.91 41.2688 28.43C40.3488 28.95 39.1788 29.21 37.7588 29.21ZM51.1514 29V12.98H54.7214V17.39L54.3014 16.1C54.7814 15.02 55.5314 14.2 56.5514 13.64C57.5914 13.08 58.8814 12.8 60.4214 12.8V16.37C60.2614 16.33 60.1114 16.31 59.9714 16.31C59.8314 16.29 59.6914 16.28 59.5514 16.28C58.1314 16.28 57.0014 16.7 56.1614 17.54C55.3214 18.36 54.9014 19.59 54.9014 21.23V29H51.1514ZM70.9861 29.21C69.2061 29.21 67.6461 28.86 66.3061 28.16C64.9861 27.44 63.9561 26.46 63.2161 25.22C62.4961 23.98 62.1361 22.57 62.1361 20.99C62.1361 19.39 62.4861 17.98 63.1861 16.76C63.9061 15.52 64.8861 14.55 66.1261 13.85C67.3861 13.15 68.8161 12.8 70.4161 12.8C71.9761 12.8 73.3661 13.14 74.5861 13.82C75.8061 14.5 76.7661 15.46 77.4661 16.7C78.1661 17.94 78.5161 19.4 78.5161 21.08C78.5161 21.24 78.5061 21.42 78.4861 21.62C78.4861 21.82 78.4761 22.01 78.4561 22.19H65.1061V19.7H76.4761L75.0061 20.48C75.0261 19.56 74.8361 18.75 74.4361 18.05C74.0361 17.35 73.4861 16.8 72.7861 16.4C72.1061 16 71.3161 15.8 70.4161 15.8C69.4961 15.8 68.6861 16 67.9861 16.4C67.3061 16.8 66.7661 17.36 66.3661 18.08C65.9861 18.78 65.7961 19.61 65.7961 20.57V21.17C65.7961 22.13 66.0161 22.98 66.4561 23.72C66.8961 24.46 67.5161 25.03 68.3161 25.43C69.1161 25.83 70.0361 26.03 71.0761 26.03C71.9761 26.03 72.7861 25.89 73.5061 25.61C74.2261 25.33 74.8661 24.89 75.4261 24.29L77.4361 26.6C76.7161 27.44 75.8061 28.09 74.7061 28.55C73.6261 28.99 72.3861 29.21 70.9861 29.21Z" fill="black"/>
<path d="M82.605 15.4C82.1243 15.4 81.6857 15.3207 81.289 15.162C80.8923 15.008 80.5493 14.7887 80.26 14.504C79.9753 14.224 79.7537 13.8903 79.595 13.503C79.441 13.111 79.364 12.684 79.364 12.222C79.364 11.7553 79.441 11.3307 79.595 10.948C79.7537 10.5607 79.9777 10.227 80.267 9.947C80.561 9.66233 80.9087 9.443 81.31 9.289C81.7113 9.135 82.1523 9.058 82.633 9.058C83.109 9.058 83.543 9.13267 83.935 9.282C84.3317 9.43133 84.6747 9.64367 84.964 9.919C85.2533 10.1897 85.475 10.514 85.629 10.892C85.7877 11.27 85.867 11.6877 85.867 12.145C85.867 12.537 85.8203 12.8753 85.727 13.16C85.6383 13.44 85.5077 13.657 85.335 13.811C85.1623 13.9603 84.9547 14.035 84.712 14.035C84.474 14.035 84.2827 13.9627 84.138 13.818C83.9933 13.6733 83.921 13.4703 83.921 13.209V12.656L83.977 12.208L83.907 11.508V10.451H84.362V13.104C84.362 13.3 84.404 13.4377 84.488 13.517C84.572 13.5963 84.6747 13.636 84.796 13.636C84.9407 13.636 85.0667 13.5777 85.174 13.461C85.2813 13.3443 85.363 13.1763 85.419 12.957C85.4797 12.733 85.51 12.4647 85.51 12.152C85.51 11.7413 85.44 11.368 85.3 11.032C85.16 10.696 84.9617 10.4067 84.705 10.164C84.4483 9.92133 84.145 9.737 83.795 9.611C83.445 9.48033 83.0577 9.415 82.633 9.415C82.2083 9.415 81.8187 9.48267 81.464 9.618C81.1093 9.75333 80.8037 9.947 80.547 10.199C80.295 10.4463 80.099 10.7427 79.959 11.088C79.819 11.4287 79.749 11.8067 79.749 12.222C79.749 12.6373 79.8167 13.0177 79.952 13.363C80.092 13.7083 80.288 14.0047 80.54 14.252C80.792 14.504 81.093 14.6977 81.443 14.833C81.793 14.973 82.1803 15.043 82.605 15.043C82.815 15.043 83.039 15.0173 83.277 14.966C83.5197 14.9147 83.7437 14.8377 83.949 14.735L84.068 15.078C83.858 15.1853 83.62 15.2647 83.354 15.316C83.088 15.372 82.8383 15.4 82.605 15.4ZM82.521 14.035C82.1897 14.035 81.8933 13.958 81.632 13.804C81.3707 13.6453 81.163 13.4307 81.009 13.16C80.8597 12.8847 80.785 12.572 80.785 12.222C80.785 11.872 80.8597 11.5617 81.009 11.291C81.163 11.0203 81.3707 10.808 81.632 10.654C81.8933 10.5 82.1897 10.423 82.521 10.423C82.843 10.423 83.1277 10.4953 83.375 10.64C83.627 10.7847 83.823 10.9923 83.963 11.263C84.1077 11.529 84.18 11.8487 84.18 12.222C84.18 12.5953 84.1077 12.9173 83.963 13.188C83.823 13.4587 83.6293 13.6687 83.382 13.818C83.1347 13.9627 82.8477 14.035 82.521 14.035ZM82.584 13.629C82.836 13.629 83.0623 13.5707 83.263 13.454C83.4683 13.3373 83.627 13.174 83.739 12.964C83.8557 12.7493 83.914 12.502 83.914 12.222C83.914 11.9373 83.8557 11.6923 83.739 11.487C83.627 11.277 83.4683 11.116 83.263 11.004C83.0623 10.8873 82.836 10.829 82.584 10.829C82.3227 10.829 82.0917 10.8873 81.891 11.004C81.6903 11.116 81.5317 11.277 81.415 11.487C81.303 11.697 81.247 11.942 81.247 12.222C81.247 12.502 81.303 12.747 81.415 12.957C81.5317 13.167 81.6903 13.3327 81.891 13.454C82.0917 13.5707 82.3227 13.629 82.584 13.629Z" fill="black"/>
</svg>
