<svg width="18" height="18" viewBox="0 0 18 18" fill="none" xmlns="http://www.w3.org/2000/svg">
<path d="M8.99837 0.666565C7.35019 0.666565 5.73903 1.15531 4.36862 2.07098C2.99821 2.98666 1.93011 4.28815 1.29938 5.81087C0.66865 7.33358 0.503622 9.00914 0.825165 10.6256C1.14671 12.2422 1.94038 13.727 3.10582 14.8924C4.27126 16.0579 5.75611 16.8516 7.37262 17.1731C8.98913 17.4946 10.6647 17.3296 12.1874 16.6989C13.7101 16.0682 15.0116 15.0001 15.9273 13.6296C16.843 12.2592 17.3317 10.6481 17.3317 8.99989C17.3317 7.90554 17.1162 6.82191 16.6974 5.81087C16.2786 4.79982 15.6647 3.88116 14.8909 3.10734C14.1171 2.33352 13.1984 1.71969 12.1874 1.3009C11.1764 0.882113 10.0927 0.666565 8.99837 0.666565ZM8.99837 15.6666C7.67983 15.6666 6.3909 15.2756 5.29457 14.543C4.19824 13.8105 3.34376 12.7693 2.83918 11.5511C2.33459 10.3329 2.20257 8.9925 2.45981 7.69929C2.71704 6.40609 3.35198 5.2182 4.28433 4.28585C5.21668 3.3535 6.40456 2.71856 7.69777 2.46133C8.99098 2.20409 10.3314 2.33612 11.5496 2.8407C12.7678 3.34528 13.809 4.19977 14.5415 5.29609C15.274 6.39242 15.665 7.68135 15.665 8.99989C15.665 10.768 14.9627 12.4637 13.7124 13.7139C12.4622 14.9642 10.7665 15.6666 8.99837 15.6666Z" fill="#231F20"/>
<path d="M8.99821 3.99975C8.22466 3.99975 7.4828 4.30704 6.93581 4.85402C6.38883 5.401 6.08154 6.14287 6.08154 6.91641C6.08154 7.13743 6.16934 7.34939 6.32562 7.50567C6.4819 7.66195 6.69386 7.74975 6.91488 7.74975C7.13589 7.74975 7.34785 7.66195 7.50413 7.50567C7.66041 7.34939 7.74821 7.13743 7.74821 6.91641C7.74821 6.66919 7.82152 6.42751 7.95887 6.22195C8.09622 6.01639 8.29145 5.85618 8.51985 5.76157C8.74826 5.66696 8.99959 5.6422 9.24207 5.69043C9.48455 5.73867 9.70727 5.85772 9.88209 6.03253C10.0569 6.20735 10.176 6.43008 10.2242 6.67255C10.2724 6.91503 10.2477 7.16636 10.1531 7.39477C10.0584 7.62318 9.89823 7.8184 9.69267 7.95575C9.48711 8.0931 9.24543 8.16641 8.99821 8.16641C8.77719 8.16641 8.56523 8.25421 8.40895 8.41049C8.25267 8.56677 8.16487 8.77873 8.16487 8.99975V10.6664C8.16487 10.8874 8.25267 11.0994 8.40895 11.2557C8.56523 11.4119 8.77719 11.4997 8.99821 11.4997C9.21922 11.4997 9.43118 11.4119 9.58746 11.2557C9.74374 11.0994 9.83154 10.8874 9.83154 10.6664V9.69975C10.505 9.50308 11.0846 9.06963 11.4636 8.47928C11.8426 7.88893 11.9955 7.18147 11.894 6.4873C11.7925 5.79314 11.4435 5.15905 10.9114 4.70191C10.3792 4.24477 9.69974 3.9954 8.99821 3.99975Z" fill="#231F20"/>
<path d="M8.99837 13.9999C9.45861 13.9999 9.8317 13.6268 9.8317 13.1666C9.8317 12.7063 9.45861 12.3332 8.99837 12.3332C8.53813 12.3332 8.16504 12.7063 8.16504 13.1666C8.16504 13.6268 8.53813 13.9999 8.99837 13.9999Z" fill="#231F20"/>
</svg>
