<svg width="46" height="46" viewBox="0 0 46 46" fill="none" xmlns="http://www.w3.org/2000/svg">
<path d="M13.6233 42.9165C14.5859 42.9165 15.2405 42.4159 16.3956 41.3763L23.0569 35.4659H35.3975C41.1348 35.4659 44.2149 32.2893 44.2149 26.6483V11.9012C44.2149 6.26025 41.1348 3.08362 35.3975 3.08362H10.6007C4.88278 3.08362 1.7832 6.24094 1.7832 11.9012V26.6483C1.7832 32.3085 4.88278 35.4659 10.6007 35.4659H11.5248V40.4714C11.5248 41.9539 12.2949 42.9165 13.6233 42.9165ZM14.4126 39.3933V33.8102C14.4126 32.7705 14.0276 32.3662 12.9687 32.3662H10.62C6.71177 32.3662 4.88278 30.3833 4.88278 26.6291V11.9012C4.88278 8.14699 6.71177 6.1832 10.62 6.1832H35.3975C39.2863 6.1832 41.1155 8.14699 41.1155 11.9012V26.6291C41.1155 30.3833 39.2863 32.3662 35.3975 32.3662H22.9222C21.8633 32.3662 21.3049 32.5203 20.5733 33.2711L14.4126 39.3933ZM14.1624 18.3699C14.1624 20.4876 15.4715 22.1241 17.5893 22.1241C18.3593 22.1241 19.1294 21.9893 19.6107 21.3925H19.7648C19.0716 22.9134 17.6663 23.8953 16.4533 24.2034C15.7603 24.3958 15.5485 24.7039 15.5485 25.1467C15.5485 25.628 15.9335 25.9938 16.4726 25.9938C18.3593 25.9938 22.1136 23.7605 22.1136 19.063C22.1136 16.5409 20.4771 14.5964 18.0706 14.5964C15.8373 14.5964 14.1624 16.1559 14.1624 18.3699ZM24.1735 18.3699C24.1735 20.4876 25.4826 22.1241 27.6004 22.1241C28.3705 22.1241 29.1405 21.9893 29.6219 21.3925H29.7759C29.0829 22.9134 27.6774 23.8953 26.4645 24.2034C25.7715 24.3958 25.5597 24.7039 25.5597 25.1467C25.5597 25.628 25.9447 25.9938 26.4838 25.9938C28.3705 25.9938 32.1439 23.7605 32.1439 19.063C32.1439 16.5409 30.4883 14.5964 28.0817 14.5964C25.8484 14.5964 24.1735 16.1559 24.1735 18.3699Z" fill="#231F20"/>
</svg>
