<svg width="56" height="62" viewBox="0 0 56 62" fill="none" xmlns="http://www.w3.org/2000/svg">
<path d="M37.1911 0.296694C36.6984 0.289814 36.2281 0.327846 35.7622 0.399624C33.8985 0.686733 32.3379 1.3603 29.2897 1.88302C26.49 2.36315 24.5903 1.66796 22.2179 1.06564C19.8455 0.463319 16.9652 0.0790561 13.4083 1.68927C12.539 2.08491 12.2308 3.16497 12.7604 3.95978L18.2581 12.2002C17.0878 13.3141 13.697 16.6126 9.70889 21.9301C4.96574 28.2543 0.100098 36.579 0.100098 44.95C0.100098 53.1657 4.15733 57.8593 9.61807 59.9596C15.0788 62.0599 21.8001 62 28.0001 62C34.2001 62 40.9214 62.0599 46.3821 59.9596C51.8429 57.8593 55.9001 53.1657 55.9001 44.95C55.9001 36.579 51.0345 28.2543 46.2913 21.9301C42.3032 16.6126 38.9124 13.3141 37.7421 12.2002L43.2397 3.95978C43.7758 3.15404 43.4506 2.05956 42.5616 1.67716C40.334 0.722628 38.6694 0.317335 37.1911 0.296694ZM36.2345 3.4633C37.0607 3.33601 38.3261 3.83258 39.4071 4.12326L34.9206 10.85H21.0796L16.5446 4.04455C18.3271 3.61773 19.8284 3.66185 21.455 4.07482C23.636 4.62854 26.2654 5.54858 29.8104 4.94064C33.1071 4.37529 34.9054 3.66805 36.2345 3.4633ZM20.8919 13.95H35.1083C35.6892 14.492 39.5768 18.1522 43.8089 23.7949C48.3657 29.8707 52.8001 37.821 52.8001 44.95C52.8001 52.2343 49.8823 55.2907 45.2681 57.0654C40.6538 58.8402 34.2001 58.9 28.0001 58.9C21.8001 58.9 15.3464 58.8402 10.7321 57.0654C6.11787 55.2907 3.2001 52.2343 3.2001 44.95C3.2001 37.821 7.63446 29.8707 12.1913 23.7949C16.4234 18.1522 20.311 14.492 20.8919 13.95ZM26.4501 27.9V31C23.9003 31 21.8001 33.1002 21.8001 35.65C21.8001 38.1998 23.9003 40.3 26.4501 40.3H29.5501C30.4245 40.3 31.1001 40.9756 31.1001 41.85C31.1001 42.7244 30.4245 43.4 29.5501 43.4H26.4501H21.8001V46.5H26.4501V49.6H29.5501V46.5C32.0999 46.5 34.2001 44.3998 34.2001 41.85C34.2001 39.3002 32.0999 37.2 29.5501 37.2H26.4501C25.5757 37.2 24.9001 36.5244 24.9001 35.65C24.9001 34.7756 25.5757 34.1 26.4501 34.1H29.5501H34.2001V31H29.5501V27.9H26.4501Z" fill="#FFB629"/>
</svg>
