<svg width="20" height="20" viewBox="0 0 20 20" fill="none" xmlns="http://www.w3.org/2000/svg">
<path d="M15.0009 12.5001C14.3462 12.5006 13.7179 12.758 13.2509 13.2168L6.66759 10.2834C6.66759 10.1834 6.66759 10.1001 6.66759 10.0001C6.66759 9.9001 6.66759 9.81677 6.66759 9.7251L13.2509 6.78344C13.6633 7.18762 14.2028 7.4366 14.7779 7.48811C15.353 7.53962 15.9282 7.39047 16.4058 7.06599C16.8834 6.74151 17.234 6.26172 17.398 5.70809C17.562 5.15447 17.5292 4.56115 17.3054 4.0289C17.0816 3.49665 16.6804 3.0583 16.17 2.78828C15.6596 2.51827 15.0715 2.43324 14.5056 2.54765C13.9396 2.66205 13.4307 2.96883 13.0653 3.41589C12.6999 3.86294 12.5004 4.4227 12.5009 5.0001V5.28344L5.91759 8.21677C5.56622 7.87156 5.12071 7.63785 4.63698 7.54496C4.15324 7.45207 3.65285 7.50415 3.19861 7.69466C2.74438 7.88517 2.35654 8.20561 2.08379 8.61577C1.81104 9.02594 1.66553 9.50753 1.66553 10.0001C1.66553 10.4927 1.81104 10.9743 2.08379 11.3844C2.35654 11.7946 2.74438 12.115 3.19861 12.3055C3.65285 12.4961 4.15324 12.5481 4.63698 12.4552C5.12071 12.3624 5.56622 12.1286 5.91759 11.7834L12.5009 14.7251V15.0001C12.5009 15.4945 12.6475 15.9779 12.9222 16.389C13.1969 16.8001 13.5874 17.1206 14.0442 17.3098C14.501 17.499 15.0037 17.5485 15.4886 17.4521C15.9736 17.3556 16.419 17.1175 16.7687 16.7679C17.1183 16.4182 17.3564 15.9728 17.4529 15.4878C17.5493 15.0029 17.4998 14.5002 17.3106 14.0434C17.1214 13.5866 16.801 13.1961 16.3898 12.9214C15.9787 12.6467 15.4954 12.5001 15.0009 12.5001ZM15.0009 4.16677C15.1657 4.16677 15.3268 4.21565 15.4639 4.30721C15.6009 4.39878 15.7077 4.52893 15.7708 4.6812C15.8339 4.83347 15.8504 5.00103 15.8182 5.16268C15.7861 5.32433 15.7067 5.47281 15.5902 5.58936C15.4736 5.7059 15.3251 5.78527 15.1635 5.81742C15.0018 5.84958 14.8343 5.83308 14.682 5.77C14.5297 5.70693 14.3996 5.60012 14.308 5.46308C14.2165 5.32604 14.1676 5.16492 14.1676 5.0001C14.1676 4.77909 14.2554 4.56713 14.4117 4.41085C14.5679 4.25457 14.7799 4.16677 15.0009 4.16677ZM4.16759 10.8334C4.00277 10.8334 3.84165 10.7846 3.70461 10.693C3.56757 10.6014 3.46076 10.4713 3.39769 10.319C3.33462 10.1667 3.31811 9.99917 3.35027 9.83752C3.38242 9.67587 3.46179 9.52739 3.57833 9.41084C3.69488 9.2943 3.84336 9.21493 4.00501 9.18278C4.16666 9.15062 4.33422 9.16713 4.48649 9.2302C4.63876 9.29327 4.76891 9.40008 4.86048 9.53712C4.95205 9.67416 5.00092 9.83528 5.00092 10.0001C5.00092 10.2211 4.91312 10.4331 4.75684 10.5894C4.60056 10.7456 4.3886 10.8334 4.16759 10.8334ZM15.0009 15.8334C14.8361 15.8334 14.675 15.7846 14.5379 15.693C14.4009 15.6014 14.2941 15.4713 14.231 15.319C14.1679 15.1667 14.1514 14.9992 14.1836 14.8375C14.2157 14.6759 14.2951 14.5274 14.4117 14.4108C14.5282 14.2943 14.6767 14.2149 14.8383 14.1828C15 14.1506 15.1675 14.1671 15.3198 14.2302C15.4721 14.2933 15.6022 14.4001 15.6938 14.5371C15.7854 14.6742 15.8342 14.8353 15.8342 15.0001C15.8342 15.2211 15.7465 15.4331 15.5902 15.5894C15.4339 15.7456 15.2219 15.8334 15.0009 15.8334Z" fill="#231F20"/>
</svg>
