<svg width="30" height="29" viewBox="0 0 30 29" fill="none" xmlns="http://www.w3.org/2000/svg">
<path fill-rule="evenodd" clip-rule="evenodd" d="M8.90625 10.4844H1.82813C0.515625 10.4844 0.46875 11.4687 0.46875 12.7344V24.125C0.46875 25.3438 0.515625 26.375 1.82813 26.375H8.90625C10.2187 26.375 10.2656 25.3906 10.2656 24.125V12.7344C10.2656 11.5156 10.2187 10.4844 8.90625 10.4844Z" stroke="#FFB629" stroke-width="1.5"/>
<path d="M10.1719 24.6875H10.8281C12.6094 24.6406 13.7812 27.3594 15.1406 27.3594H25.7344C27.0469 27.3594 27.3281 25.3906 27.2812 24.5469C27.2812 24.5469 28.9219 23.7969 28.1719 20.7969C28.2656 20.75 29.1094 19.9531 29.1094 18.4063C29.1094 16.8594 28.2187 16.1094 28.2187 16.1094C28.2187 16.1094 29.1094 15.125 29.1094 13.6719C29.1094 12.2188 27.8437 11.4219 26.5312 11.4219H22.6406C19.2656 11.4219 19.5469 9.59375 19.5469 9.59375C19.5469 9.59375 19.1719 4.85938 17.9531 2.65625C16.4531 -0.0624988 13.4531 0.828126 14.5781 4.39063C15.4219 7.01563 11.625 10.9531 10.2187 12.2656" stroke="#FFB629" stroke-width="1.5"/>
</svg>
