<svg width="124" height="124" viewBox="0 0 124 124" fill="none" xmlns="http://www.w3.org/2000/svg">
<circle cx="62" cy="62" r="61.5" stroke="white"/>
<circle cx="62" cy="62" r="51.5" fill="white" stroke="white"/>
<path d="M60.875 67.8501L67.1975 62.0001L60.875 56.1501V67.8501Z" fill="#231F20"/>
<path d="M62 39.5C57.5499 39.5 53.1998 40.8196 49.4997 43.2919C45.7996 45.7643 42.9157 49.2783 41.2127 53.3896C39.5097 57.501 39.0642 62.025 39.9323 66.3895C40.8005 70.7541 42.9434 74.7632 46.0901 77.9099C49.2368 81.0566 53.2459 83.1995 57.6105 84.0677C61.9751 84.9358 66.4991 84.4903 70.6104 82.7873C74.7217 81.0843 78.2357 78.2004 80.7081 74.5003C83.1804 70.8002 84.5 66.4501 84.5 62C84.5 59.0453 83.918 56.1194 82.7873 53.3896C81.6566 50.6598 79.9992 48.1794 77.9099 46.0901C75.8206 44.0008 73.3402 42.3434 70.6104 41.2127C67.8806 40.082 64.9548 39.5 62 39.5ZM71 64.655L62.81 72.2375C62.0945 72.8852 61.1651 73.2457 60.2 73.25C59.6644 73.2488 59.1353 73.1337 58.6475 72.9125C57.9839 72.6441 57.4154 72.1839 57.0146 71.5907C56.6138 70.9975 56.399 70.2984 56.3975 69.5825V54.4175C56.399 53.7016 56.6138 53.0025 57.0146 52.4093C57.4154 51.8161 57.9839 51.3559 58.6475 51.0875C59.3311 50.7797 60.0901 50.6796 60.8302 50.7996C61.5702 50.9196 62.2587 51.2544 62.81 51.7625L71 59.345C71.3683 59.6823 71.6624 60.0925 71.8636 60.5496C72.0649 61.0066 72.1688 61.5006 72.1688 62C72.1688 62.4994 72.0649 62.9934 71.8636 63.4504C71.6624 63.9075 71.3683 64.3177 71 64.655Z" fill="#231F20"/>
</svg>
